<?xml version="1.0" encoding="utf-8"?>
<!-- Generator: Adobe Illustrator 22.1.0, SVG Export Plug-In . SVG Version: 6.00 Build 0)  -->
<svg version="1.1" id="Layer_1" xmlns="http://www.w3.org/2000/svg" xmlns:xlink="http://www.w3.org/1999/xlink" x="0px" y="0px"
	 viewBox="0 0 1305 1194.4" style="enable-background:new 0 0 1305 1194.4;" xml:space="preserve">
<style type="text/css">
	.st0{enable-background:new    ;}
	.st1{fill:#FFFFFF;stroke:#000000;stroke-width:2;}
	.st2{stroke:#000000;stroke-width:2;}
	.st3{fill:none;stroke:#000000;stroke-width:12;}
	.st4{fill:#020202;}
	.st5{stroke:#000000;}
</style>
<g class="st0">
	<path d="M119.1,883.6h8.9v106.9h-8.9V948c-2.9,4.7-6.8,8.3-11.8,10.7s-10.2,3.6-15.6,3.6c-5.8,0-10.9-1.1-15.2-3.3
		c-4.3-2.2-7.8-5.2-10.7-8.9s-4.9-8-6.3-12.9c-1.4-4.9-2.1-10.1-2.1-15.4c0-5.6,0.6-10.9,1.9-15.8c1.3-4.9,3.3-9.2,6.1-12.8
		s6.4-6.4,10.7-8.5s9.6-3.1,15.8-3.1c2.5,0,5,0.3,7.5,1c2.6,0.7,5.1,1.7,7.5,3s4.6,2.9,6.7,4.9c2,2,3.7,4.2,5,6.7h0.3L119.1,883.6
		L119.1,883.6z M119.1,921.7c0-4.3-0.6-8.5-1.8-12.4c-1.2-3.9-2.9-7.3-5.1-10.2s-4.9-5.2-8.1-7c-3.2-1.7-6.8-2.6-10.9-2.6
		c-4.6,0-8.6,0.9-12,2.7s-6.1,4.3-8.3,7.5c-2.2,3.2-3.8,6.8-4.7,11c-1,4.2-1.4,8.7-1.2,13.5c0,4.8,0.7,9.1,2,12.8s3.2,6.8,5.6,9.4
		c2.4,2.6,5.1,4.5,8.3,5.8c3.2,1.3,6.6,2,10.4,2c4.1,0,7.8-0.8,11.1-2.5c3.3-1.7,6-4,8.1-6.9c2.2-2.9,3.8-6.4,5-10.4
		C118.6,930.6,119.1,926.3,119.1,921.7z"/>
	<path d="M202.3,883.6h8.9v76.7h-8.9v-10.7c-1.2,1.4-2.5,2.8-4,4.3s-3.2,2.8-5.1,4.1c-1.9,1.2-4.2,2.3-6.7,3.1
		c-2.6,0.8-5.5,1.3-8.9,1.3c-5.1,0-9.4-0.7-12.9-2.1c-3.5-1.4-6.2-3.4-8.4-6c-2.1-2.6-3.7-5.5-4.6-9c-0.9-3.4-1.4-7.1-1.4-11.2
		v-50.5h8.9V934c0,6.6,1.5,11.7,4.6,15.2s8.1,5.3,15.1,5.3c3.6,0,6.9-0.7,9.8-2.1c2.9-1.4,5.4-3.4,7.3-6c2-2.6,3.5-5.6,4.6-9.2
		c1.1-3.6,1.6-7.4,1.6-11.7L202.3,883.6L202.3,883.6z"/>
	<path d="M267.9,915.6c1.7-0.2,3.7-0.5,6-0.9s4.2-0.9,5.7-1.6c1.5-0.7,2.4-1.9,2.7-3.5c0.3-1.6,0.5-3.1,0.5-4.5
		c0-4.5-1.5-8.3-4.4-11.2s-7.8-4.4-14.7-4.4c-3.1,0-5.9,0.3-8.4,0.8c-2.6,0.5-4.8,1.5-6.7,2.8s-3.5,3.1-4.7,5.3s-2,5-2.4,8.4h-9
		c0.3-4.5,1.3-8.4,3.1-11.6c1.8-3.2,4.1-5.8,6.9-7.8c2.8-2,6.1-3.5,9.8-4.4s7.6-1.4,11.8-1.4c3.8,0,7.5,0.4,10.9,1.3
		c3.4,0.8,6.4,2.2,8.9,4s4.5,4.3,5.9,7.3c1.4,3.1,2.1,6.8,2.1,11.2v41.7c0,3.5,0.6,5.6,1.8,6.6c1.2,0.9,3.7,0.7,7.5-0.7v7
		c-0.7,0.2-1.7,0.5-3,0.9s-2.6,0.6-3.9,0.6c-1.4,0-2.7-0.1-4-0.4c-1.5-0.2-2.7-0.7-3.6-1.4s-1.6-1.6-2.1-2.7c-0.5-1-0.9-2.2-1.1-3.4
		s-0.3-2.5-0.3-3.9c-3.8,4.1-8,7.3-12.9,9.5c-4.8,2.2-10.1,3.3-15.7,3.3c-3.4,0-6.6-0.4-9.7-1.3c-3.1-0.9-5.8-2.3-8.2-4.1
		c-2.4-1.9-4.2-4.2-5.6-6.9c-1.4-2.7-2.1-5.9-2.1-9.7c0-13,8.9-20.7,26.8-23.1L267.9,915.6z M282.8,920c-3.8,1.6-7.5,2.6-11.4,3.1
		c-3.8,0.5-7.7,0.9-11.5,1.2c-6.8,0.5-12.1,2-15.9,4.6c-3.8,2.6-5.7,6.5-5.7,11.7c0,2.4,0.5,4.4,1.4,6.1c0.9,1.7,2.2,3.2,3.7,4.3
		s3.3,2,5.3,2.5s4.1,0.8,6.1,0.8c3.6,0,7-0.4,10.4-1.3c3.4-0.9,6.3-2.2,9-4.1c2.6-1.8,4.7-4.1,6.3-7c1.6-2.8,2.4-6.1,2.4-10V920
		H282.8z"/>
	<path d="M323.8,960.3h-8.9v-76.7h8.9v10.7c3.6-3.7,7.2-6.8,11-9.2s8.4-3.6,13.7-3.6c4.7,0,9.1,0.8,13.2,2.4c4,1.6,7.4,4.5,10.2,8.5
		c1.9,2.8,3,5.6,3.3,8.5s0.5,5.9,0.5,9.1v50.2h-8.9v-50c0-6.9-1.5-12.1-4.6-15.5c-3.1-3.5-8.1-5.2-15.2-5.2c-2.8,0-5.3,0.4-7.5,1.3
		c-2.3,0.8-4.3,2-6.1,3.3c-1.8,1.4-3.4,3-4.7,4.7c-1.3,1.8-2.3,3.7-3,5.6c-0.9,2.5-1.4,4.8-1.6,7.1s-0.3,4.7-0.3,7.4V960.3
		L323.8,960.3z"/>
	<path d="M424.2,960.6c-1.1,0.2-2.5,0.5-4.3,1s-3.8,0.7-5.9,0.7c-4.4,0-7.8-1.1-10.1-3.3c-2.3-2.2-3.5-6.2-3.5-11.9V891h-10.8v-7.4
		h10.8v-21.3h8.9v21.3h14.3v7.4h-14.4v52.5c0,1.9,0,3.5,0.1,4.9s0.4,2.5,0.9,3.4s1.3,1.5,2.3,1.9s2.5,0.6,4.4,0.6
		c1.2,0,2.4-0.1,3.6-0.3s2.4-0.4,3.6-0.7v7.3L424.2,960.6L424.2,960.6z"/>
	<path d="M439.2,866.9v-13.2h9.8v13.2H439.2z M439.7,960.3v-76.7h8.9v76.7H439.7z"/>
	<path d="M498.1,960.6c-1.1,0.2-2.5,0.5-4.3,1s-3.8,0.7-5.9,0.7c-4.4,0-7.8-1.1-10.1-3.3c-2.3-2.2-3.5-6.2-3.5-11.9V891h-10.8v-7.4
		h10.8v-21.3h8.9v21.3h14.4v7.4h-14.4v52.5c0,1.9,0,3.5,0.1,4.9s0.4,2.5,0.9,3.4s1.3,1.5,2.3,1.9s2.5,0.6,4.4,0.6
		c1.2,0,2.4-0.1,3.6-0.3s2.4-0.4,3.6-0.7V960.6z"/>
	<path d="M547.6,915.6c1.7-0.2,3.7-0.5,6-0.9s4.2-0.9,5.7-1.6c1.5-0.7,2.4-1.9,2.7-3.5s0.5-3.1,0.5-4.5c0-4.5-1.5-8.3-4.4-11.2
		s-7.8-4.4-14.7-4.4c-3.1,0-5.9,0.3-8.4,0.8c-2.6,0.5-4.8,1.5-6.7,2.8s-3.5,3.1-4.7,5.3s-2,5-2.4,8.4h-9c0.3-4.5,1.3-8.4,3.1-11.6
		c1.8-3.2,4.1-5.8,6.9-7.8c2.8-2,6.1-3.5,9.8-4.4s7.6-1.4,11.8-1.4c3.8,0,7.5,0.4,10.9,1.3c3.4,0.8,6.4,2.2,8.9,4s4.5,4.3,5.9,7.3
		c1.4,3.1,2.1,6.8,2.1,11.2v41.7c0,3.5,0.6,5.6,1.8,6.6c1.2,0.9,3.7,0.7,7.5-0.7v7c-0.7,0.2-1.7,0.5-3,0.9s-2.6,0.6-3.9,0.6
		c-1.4,0-2.7-0.1-4-0.4c-1.5-0.2-2.7-0.7-3.6-1.4c-0.9-0.7-1.6-1.6-2.1-2.7c-0.5-1-0.9-2.2-1.1-3.4c-0.2-1.2-0.3-2.5-0.3-3.9
		c-3.8,4.1-8,7.3-12.9,9.5c-4.8,2.2-10.1,3.3-15.7,3.3c-3.4,0-6.6-0.4-9.7-1.3c-3.1-0.9-5.8-2.3-8.2-4.1c-2.4-1.9-4.2-4.2-5.6-6.9
		s-2.1-5.9-2.1-9.7c0-13,8.9-20.7,26.8-23.1L547.6,915.6z M562.5,920c-3.8,1.6-7.5,2.6-11.4,3.1c-3.8,0.5-7.7,0.9-11.5,1.2
		c-6.8,0.5-12.1,2-15.9,4.6c-3.8,2.6-5.7,6.5-5.7,11.7c0,2.4,0.5,4.4,1.4,6.1c0.9,1.7,2.2,3.2,3.7,4.3s3.3,2,5.3,2.5
		s4.1,0.8,6.1,0.8c3.6,0,7-0.4,10.4-1.3c3.4-0.9,6.3-2.2,9-4.1c2.6-1.8,4.7-4.1,6.3-7c1.6-2.8,2.4-6.1,2.4-10L562.5,920L562.5,920z"
		/>
	<path d="M621.6,960.6c-1.1,0.2-2.5,0.5-4.3,1s-3.8,0.7-5.9,0.7c-4.4,0-7.8-1.1-10.1-3.3s-3.5-6.2-3.5-11.9V891H587v-7.4h10.8v-21.3
		h8.9v21.3h14.4v7.4h-14.5v52.5c0,1.9,0,3.5,0.1,4.9s0.4,2.5,0.9,3.4s1.3,1.5,2.3,1.9s2.5,0.6,4.4,0.6c1.2,0,2.4-0.1,3.6-0.3
		c1.2-0.2,2.4-0.4,3.6-0.7L621.6,960.6L621.6,960.6L621.6,960.6z"/>
	<path d="M636.7,866.9v-13.2h9.8v13.2H636.7z M637.1,960.3v-76.7h8.9v76.7H637.1z"/>
	<path d="M660.5,883.6h9.6l24.9,65.7l24.9-65.7h9.6l-29.7,76.7h-9.9L660.5,883.6z"/>
	<path d="M748.1,924c0,4.1,0.5,8.1,1.6,11.8s2.7,6.9,4.8,9.6c2.1,2.7,4.8,4.9,8.1,6.5s7,2.4,11.2,2.4c5.8,0,10.8-1.5,14.9-4.6
		c4.1-3.1,6.9-7.4,8.3-13h9.9c-1.1,3.7-2.5,7-4.3,10.1s-4,5.8-6.7,8.1s-5.8,4.1-9.5,5.4c-3.7,1.3-7.9,1.9-12.7,1.9
		c-6.1,0-11.4-1-15.8-3.1c-4.4-2.1-8.1-4.9-11-8.5s-5-7.8-6.4-12.7s-2.1-10.1-2.1-15.8s0.8-10.9,2.4-15.8c1.6-4.9,3.9-9.2,7-13
		c3-3.7,6.7-6.6,11-8.7c4.3-2.1,9.3-3.2,14.8-3.2c10.6,0,18.8,3.6,24.9,10.9c6,7.3,9,17.8,8.9,31.6L748.1,924L748.1,924z
		 M798.1,916.6c0-3.7-0.5-7.3-1.6-10.6c-1-3.3-2.6-6.2-4.6-8.6c-2-2.4-4.6-4.3-7.6-5.8c-3.1-1.4-6.6-2.1-10.5-2.1s-7.4,0.7-10.4,2.2
		s-5.6,3.5-7.7,5.9c-2.1,2.5-3.8,5.3-5.1,8.6s-2.1,6.7-2.5,10.4L798.1,916.6L798.1,916.6z"/>
	<path d="M114.2,1069.8c-1.6-5.7-4.3-10.2-8.1-13.4c-3.8-3.2-8.7-4.8-14.7-4.8c-4.5,0-8.4,0.9-11.7,2.8c-3.3,1.9-5.9,4.4-8,7.5
		s-3.6,6.6-4.6,10.5s-1.5,7.8-1.5,11.8s0.5,8,1.4,11.8s2.4,7.3,4.5,10.4s4.7,5.5,8,7.3s7.2,2.7,11.8,2.7c6.6,0,11.9-1.8,15.9-5.5
		c4-3.6,6.5-8.7,7.6-15.1h9.5c-0.8,4.2-2,8.1-3.8,11.6c-1.7,3.5-3.9,6.5-6.7,9c-2.7,2.5-5.9,4.5-9.7,5.8c-3.8,1.4-8,2.1-12.9,2.1
		c-6.1,0-11.4-1-15.8-3.1s-8.1-4.9-11-8.5s-5-7.9-6.4-12.8s-2.1-10.2-2.1-15.8c0-5.3,0.8-10.4,2.3-15.3s3.8-9.2,6.7-12.9
		c3-3.7,6.6-6.7,11-9c4.4-2.2,9.4-3.3,15.2-3.3c8.9,0,16.1,2.1,21.5,6.4c5.5,4.2,8.9,10.9,10.3,19.8H114.2L114.2,1069.8z"/>
	<path d="M143.5,1122.3v-106.6h8.9v106.6H143.5L143.5,1122.3z"/>
	<path d="M210.3,1077.6c1.7-0.2,3.7-0.5,6-0.9s4.2-0.9,5.7-1.6s2.4-1.9,2.7-3.5s0.5-3.1,0.5-4.5c0-4.5-1.5-8.3-4.4-11.2
		c-2.9-2.9-7.8-4.4-14.7-4.4c-3.1,0-5.9,0.3-8.4,0.8c-2.6,0.5-4.8,1.5-6.7,2.8s-3.5,3.1-4.7,5.3c-1.2,2.2-2,5-2.4,8.4h-9
		c0.3-4.5,1.3-8.4,3.1-11.6s4.1-5.8,6.9-7.8c2.8-2,6.1-3.5,9.8-4.4s7.6-1.4,11.8-1.4c3.8,0,7.5,0.4,10.9,1.3s6.4,2.2,8.9,4
		s4.5,4.3,5.9,7.3c1.4,3.1,2.1,6.8,2.1,11.2v41.7c0,3.5,0.6,5.6,1.8,6.6c1.2,0.9,3.7,0.7,7.5-0.7v7c-0.7,0.2-1.7,0.5-3,0.9
		s-2.6,0.6-3.9,0.6c-1.4,0-2.7-0.1-4-0.4c-1.5-0.2-2.7-0.7-3.6-1.4c-0.9-0.7-1.6-1.6-2.1-2.7c-0.5-1-0.9-2.2-1.1-3.4
		c-0.2-1.2-0.3-2.5-0.3-3.9c-3.8,4.1-8,7.3-12.9,9.5c-4.8,2.2-10.1,3.3-15.7,3.3c-3.4,0-6.6-0.4-9.7-1.3c-3.1-0.9-5.8-2.3-8.2-4.1
		c-2.4-1.9-4.2-4.2-5.6-6.9c-1.4-2.7-2.1-5.9-2.1-9.7c0-13,8.9-20.7,26.8-23.1L210.3,1077.6z M225.2,1082c-3.8,1.6-7.5,2.6-11.4,3.1
		c-3.8,0.5-7.7,0.9-11.5,1.2c-6.8,0.5-12.1,2-15.9,4.6c-3.8,2.6-5.7,6.5-5.7,11.7c0,2.4,0.5,4.4,1.4,6.1s2.2,3.2,3.7,4.3
		c1.5,1.1,3.3,2,5.3,2.5s4.1,0.8,6.1,0.8c3.6,0,7-0.4,10.4-1.3s6.3-2.2,9-4.1c2.6-1.8,4.7-4.1,6.3-7c1.6-2.8,2.4-6.1,2.4-10V1082
		H225.2z"/>
	<path d="M262.5,1098.3c1.4,6.6,3.9,11.3,7.5,14s8.8,4.1,15.5,4.1c3.3,0,6.1-0.4,8.4-1.2c2.4-0.8,4.3-1.9,5.8-3.2
		c1.5-1.3,2.7-2.8,3.5-4.5s1.2-3.5,1.2-5.3c0-3.7-1.2-6.5-3.6-8.4c-2.4-1.8-5.5-3.3-9.1-4.3c-3.7-1-7.6-1.9-11.8-2.7
		c-4.2-0.7-8.2-1.8-11.8-3.3c-3.7-1.5-6.7-3.6-9.1-6.4s-3.6-6.7-3.6-11.7c0-6.4,2.3-11.7,7-15.8c4.7-4.1,11.3-6.1,19.9-6.1
		c8.3,0,15,1.9,20.2,5.6s8.3,9.9,9.4,18.6h-9c-0.8-5.9-3-10.1-6.7-12.5s-8.4-3.6-14-3.6s-9.9,1.2-12.9,3.6s-4.4,5.6-4.4,9.5
		c0,3.5,1.2,6.1,3.6,7.9s5.4,3.3,9.1,4.4c3.6,1.1,7.6,2.1,11.8,3c4.2,0.9,8.2,2.1,11.8,3.8c3.6,1.6,6.7,3.8,9.1,6.6
		c2.4,2.8,3.6,6.6,3.6,11.5c0,3.7-0.8,6.9-2.4,9.7c-1.6,2.8-3.8,5.2-6.5,7c-2.8,1.9-6,3.3-9.8,4.2c-3.8,0.9-8,1.4-12.5,1.4
		s-8.6-0.7-12.1-2s-6.5-3.2-9-5.6s-4.4-5.1-5.8-8.3c-1.4-3.2-2.2-6.6-2.4-10.2L262.5,1098.3L262.5,1098.3L262.5,1098.3z"/>
	<path d="M358.3,1122.6c-1.1,0.2-2.5,0.5-4.3,1s-3.8,0.7-5.9,0.7c-4.4,0-7.8-1.1-10.1-3.3c-2.3-2.2-3.5-6.2-3.5-11.9V1053h-10.8
		v-7.4h10.8v-21.3h8.9v21.3h14.4v7.4h-14.4v52.5c0,1.9,0,3.5,0.1,4.9s0.4,2.5,0.9,3.4s1.3,1.5,2.3,1.9s2.5,0.6,4.4,0.6
		c1.2,0,2.4-0.1,3.6-0.3c1.2-0.2,2.4-0.4,3.6-0.7V1122.6L358.3,1122.6z"/>
	<path d="M373.4,1028.9v-13.2h9.8v13.2H373.4z M373.8,1122.3v-76.7h8.9v76.7H373.8z"/>
	<path d="M459.7,1069.8c-1.6-5.7-4.3-10.2-8.1-13.4c-3.8-3.2-8.7-4.8-14.7-4.8c-4.5,0-8.4,0.9-11.7,2.8c-3.3,1.9-5.9,4.4-8,7.5
		s-3.6,6.6-4.6,10.5s-1.5,7.8-1.5,11.8s0.5,8,1.4,11.8s2.4,7.3,4.5,10.4s4.7,5.5,8,7.3s7.2,2.7,11.8,2.7c6.6,0,11.9-1.8,15.9-5.5
		c4-3.6,6.5-8.7,7.6-15.1h9.5c-0.8,4.2-2,8.1-3.8,11.6c-1.7,3.5-3.9,6.5-6.7,9c-2.7,2.5-5.9,4.5-9.7,5.8c-3.8,1.4-8,2.1-12.9,2.1
		c-6.1,0-11.4-1-15.8-3.1s-8.1-4.9-11-8.5s-5-7.9-6.4-12.8s-2.1-10.2-2.1-15.8c0-5.3,0.8-10.4,2.3-15.3s3.8-9.2,6.7-12.9
		c3-3.7,6.6-6.7,11-9c4.4-2.2,9.4-3.3,15.2-3.3c8.9,0,16.1,2.1,21.5,6.4c5.5,4.2,8.9,10.9,10.3,19.8H459.7L459.7,1069.8z"/>
	<path d="M492.8,1098.3c1.4,6.6,3.9,11.3,7.5,14s8.8,4.1,15.5,4.1c3.3,0,6.1-0.4,8.4-1.2c2.4-0.8,4.3-1.9,5.8-3.2
		c1.5-1.3,2.7-2.8,3.5-4.5s1.2-3.5,1.2-5.3c0-3.7-1.2-6.5-3.6-8.4c-2.4-1.8-5.5-3.3-9.1-4.3c-3.7-1-7.6-1.9-11.8-2.7
		c-4.2-0.7-8.2-1.8-11.8-3.3c-3.7-1.5-6.7-3.6-9.1-6.4s-3.6-6.7-3.6-11.7c0-6.4,2.3-11.7,7-15.8c4.7-4.1,11.3-6.1,19.9-6.1
		c8.3,0,15,1.9,20.2,5.6s8.3,9.9,9.4,18.6h-9c-0.8-5.9-3-10.1-6.7-12.5s-8.4-3.6-14-3.6c-5.6,0-9.9,1.2-12.9,3.6s-4.4,5.6-4.4,9.5
		c0,3.5,1.2,6.1,3.6,7.9s5.5,3.3,9.1,4.4s7.6,2.1,11.8,3s8.2,2.1,11.8,3.8c3.6,1.6,6.7,3.8,9.1,6.6c2.4,2.8,3.6,6.6,3.6,11.5
		c0,3.7-0.8,6.9-2.4,9.7c-1.6,2.8-3.8,5.2-6.5,7c-2.8,1.9-6,3.3-9.8,4.2c-3.8,0.9-8,1.4-12.5,1.4s-8.6-0.7-12.1-2s-6.5-3.2-9-5.6
		s-4.4-5.1-5.8-8.3c-1.4-3.2-2.2-6.6-2.4-10.2L492.8,1098.3L492.8,1098.3L492.8,1098.3z"/>
	<path d="M604.1,1122.3v-106.6h8.9v106.6H604.1L604.1,1122.3z"/>
	<path d="M670.9,1077.6c1.7-0.2,3.7-0.5,6-0.9s4.2-0.9,5.7-1.6s2.4-1.9,2.7-3.5s0.5-3.1,0.5-4.5c0-4.5-1.5-8.3-4.4-11.2
		c-2.9-2.9-7.8-4.4-14.7-4.4c-3.1,0-5.9,0.3-8.4,0.8c-2.6,0.5-4.8,1.5-6.7,2.8s-3.5,3.1-4.7,5.3c-1.2,2.2-2,5-2.4,8.4h-9
		c0.3-4.5,1.3-8.4,3.1-11.6s4.1-5.8,6.9-7.8c2.8-2,6.1-3.5,9.8-4.4s7.6-1.4,11.8-1.4c3.8,0,7.5,0.4,10.9,1.3c3.4,0.8,6.4,2.2,8.9,4
		s4.5,4.3,5.9,7.3c1.4,3.1,2.1,6.8,2.1,11.2v41.7c0,3.5,0.6,5.6,1.8,6.6c1.2,0.9,3.7,0.7,7.5-0.7v7c-0.7,0.2-1.7,0.5-3,0.9
		s-2.6,0.6-3.9,0.6c-1.4,0-2.7-0.1-4-0.4c-1.5-0.2-2.7-0.7-3.6-1.4c-0.9-0.7-1.6-1.6-2.1-2.7c-0.5-1-0.9-2.2-1.1-3.4
		c-0.2-1.2-0.3-2.5-0.3-3.9c-3.8,4.1-8,7.3-12.9,9.5c-4.8,2.2-10.1,3.3-15.7,3.3c-3.4,0-6.6-0.4-9.7-1.3c-3.1-0.9-5.8-2.3-8.2-4.1
		c-2.4-1.9-4.2-4.2-5.6-6.9c-1.4-2.7-2.1-5.9-2.1-9.7c0-13,8.9-20.7,26.8-23.1L670.9,1077.6z M685.8,1082c-3.8,1.6-7.5,2.6-11.4,3.1
		c-3.8,0.5-7.7,0.9-11.5,1.2c-6.8,0.5-12.1,2-15.9,4.6c-3.8,2.6-5.7,6.5-5.7,11.7c0,2.4,0.5,4.4,1.4,6.1s2.2,3.2,3.7,4.3
		c1.5,1.1,3.3,2,5.3,2.5s4.1,0.8,6.1,0.8c3.6,0,7-0.4,10.4-1.3s6.3-2.2,9-4.1c2.6-1.8,4.7-4.1,6.3-7c1.6-2.8,2.4-6.1,2.4-10
		L685.8,1082L685.8,1082z"/>
	<path d="M727.8,1122.3h-8.9v-106.6h8.9v42.2c2.9-4.7,6.8-8.3,11.8-10.7c5-2.4,10.2-3.6,15.6-3.6c5.8,0,10.9,1.1,15.2,3.3
		c4.3,2.2,7.8,5.2,10.7,8.9c2.8,3.7,4.9,8,6.3,12.9c1.4,4.9,2.1,10.1,2.1,15.4c0,5.6-0.6,10.9-1.9,15.8c-1.3,4.9-3.3,9.2-6.1,12.8
		c-2.8,3.6-6.4,6.4-10.7,8.5s-9.6,3.1-15.8,3.1c-2.5,0-5-0.3-7.5-1c-2.6-0.7-5.1-1.7-7.5-3s-4.6-2.9-6.7-4.8c-2-1.9-3.7-4.2-5-6.7
		H728L727.8,1122.3L727.8,1122.3z M727.8,1083.7c0,4.6,0.6,9,1.7,12.9c1.1,4,2.8,7.4,5,10.4c2.2,2.9,4.9,5.2,8.1,6.9
		c3.3,1.7,7,2.5,11.1,2.5c3.7,0,7.2-0.7,10.4-2s5.9-3.3,8.3-5.8c2.4-2.6,4.2-5.7,5.5-9.4s2-8,2-12.8c0.2-4.8-0.2-9.3-1.2-13.5
		s-2.6-7.9-4.7-11c-2.2-3.2-5-5.6-8.4-7.5c-3.4-1.8-7.4-2.7-11.9-2.7c-4,0-7.7,0.9-10.9,2.6s-5.9,4-8.1,7c-2.2,2.9-3.9,6.3-5.1,10.2
		C728.4,1075.2,727.8,1079.3,727.8,1083.7z"/>
	<path d="M838.8,1124.4c-4.9-0.1-9.5-1-13.8-2.7s-8-4.2-11.2-7.5c-3.2-3.4-5.7-7.5-7.6-12.6c-1.9-5-2.8-10.9-2.8-17.6
		c0-5.6,0.7-10.9,2.2-15.8s3.7-9.2,6.7-12.8c3-3.6,6.7-6.5,11.1-8.7c4.4-2.1,9.6-3.2,15.5-3.2c6,0,11.2,1.1,15.7,3.2
		c4.4,2.1,8.1,5,11.1,8.6s5.2,7.9,6.6,12.8c1.4,4.9,2.1,10.2,2.1,15.8c0,6.1-0.8,11.6-2.5,16.6c-1.7,4.9-4.1,9.2-7.2,12.7
		c-3.1,3.6-6.9,6.3-11.2,8.2C849,1123.4,844.2,1124.4,838.8,1124.4z M864.9,1084c0-4.5-0.5-8.8-1.5-12.7c-1-3.9-2.5-7.4-4.6-10.3
		s-4.7-5.2-8-6.9c-3.3-1.7-7.3-2.5-12-2.5c-4.6,0-8.6,0.9-11.9,2.7c-3.3,1.8-6,4.2-8.1,7.3c-2.1,3-3.6,6.5-4.6,10.4
		s-1.5,7.9-1.5,12.1c0,4.7,0.6,9.1,1.7,13.1c1.1,4,2.8,7.4,5,10.3s4.9,5.1,8.1,6.7c3.3,1.6,7,2.4,11.2,2.4c4.6,0,8.6-0.9,11.9-2.7
		c3.3-1.8,6-4.3,8.1-7.3c2.1-3.1,3.6-6.5,4.6-10.4C864.4,1092.1,864.9,1088.1,864.9,1084z"/>
	<path d="M900,1122.3h-8.9v-76.7h8.9v14.4h0.3c2.5-6.1,5.6-10.4,9.5-12.8s9.1-3.6,15.5-3.6v9.6c-5-0.1-9.2,0.7-12.4,2.4
		c-3.3,1.7-5.8,3.9-7.8,6.8c-1.9,2.9-3.3,6.2-4,10.1s-1.1,8-1.1,12.2V1122.3L900,1122.3z"/>
	<path d="M975.1,1077.6c1.7-0.2,3.7-0.5,6-0.9s4.2-0.9,5.7-1.6s2.4-1.9,2.7-3.5s0.5-3.1,0.5-4.5c0-4.5-1.5-8.3-4.4-11.2
		c-2.9-2.9-7.8-4.4-14.7-4.4c-3.1,0-5.9,0.3-8.4,0.8c-2.6,0.5-4.8,1.5-6.7,2.8s-3.5,3.1-4.7,5.3c-1.2,2.2-2,5-2.4,8.4h-9
		c0.3-4.5,1.3-8.4,3.1-11.6s4.1-5.8,6.9-7.8c2.8-2,6.1-3.5,9.8-4.4s7.6-1.4,11.8-1.4c3.8,0,7.5,0.4,10.9,1.3c3.4,0.8,6.4,2.2,8.9,4
		s4.5,4.3,5.9,7.3c1.4,3.1,2.1,6.8,2.1,11.2v41.7c0,3.5,0.6,5.6,1.9,6.6c1.2,0.9,3.7,0.7,7.5-0.7v7c-0.7,0.2-1.7,0.5-3,0.9
		s-2.6,0.6-3.9,0.6c-1.4,0-2.7-0.1-4-0.4c-1.5-0.2-2.7-0.7-3.6-1.4c-0.9-0.7-1.6-1.6-2.1-2.7c-0.5-1-0.9-2.2-1.1-3.4
		c-0.2-1.2-0.3-2.5-0.3-3.9c-3.8,4.1-8,7.3-12.9,9.5c-4.8,2.2-10.1,3.3-15.7,3.3c-3.4,0-6.6-0.4-9.7-1.3c-3.1-0.9-5.8-2.3-8.2-4.1
		c-2.4-1.9-4.2-4.2-5.6-6.9c-1.4-2.7-2.1-5.9-2.1-9.7c0-13,8.9-20.7,26.8-23.1L975.1,1077.6z M990.1,1082c-3.8,1.6-7.5,2.6-11.4,3.1
		c-3.8,0.5-7.7,0.9-11.5,1.2c-6.8,0.5-12.1,2-15.9,4.6c-3.8,2.6-5.7,6.5-5.7,11.7c0,2.4,0.5,4.4,1.4,6.1s2.2,3.2,3.7,4.3
		c1.5,1.1,3.3,2,5.3,2.5s4.1,0.8,6.1,0.8c3.6,0,7-0.4,10.4-1.3s6.3-2.2,9-4.1c2.6-1.8,4.7-4.1,6.3-7c1.6-2.8,2.4-6.1,2.4-10
		L990.1,1082L990.1,1082z"/>
	<path d="M1049.1,1122.6c-1.1,0.2-2.5,0.5-4.3,1s-3.8,0.7-5.9,0.7c-4.4,0-7.8-1.1-10.1-3.3c-2.3-2.2-3.5-6.2-3.5-11.9V1053h-10.8
		v-7.4h10.8v-21.3h8.9v21.3h14.4v7.4h-14.4v52.5c0,1.9,0,3.5,0.1,4.9s0.4,2.5,0.9,3.4s1.3,1.5,2.3,1.9s2.5,0.6,4.4,0.6
		c1.2,0,2.4-0.1,3.6-0.3c1.2-0.2,2.4-0.4,3.6-0.7V1122.6L1049.1,1122.6z"/>
	<path d="M1093.8,1124.4c-4.9-0.1-9.5-1-13.8-2.7s-8-4.2-11.2-7.5c-3.2-3.4-5.7-7.5-7.6-12.6c-1.9-5-2.8-10.9-2.8-17.6
		c0-5.6,0.7-10.9,2.2-15.8s3.7-9.2,6.7-12.8c3-3.6,6.7-6.5,11.1-8.7c4.4-2.1,9.6-3.2,15.5-3.2c6,0,11.2,1.1,15.7,3.2
		c4.4,2.1,8.1,5,11.1,8.6s5.2,7.9,6.6,12.8s2.1,10.2,2.1,15.8c0,6.1-0.8,11.6-2.5,16.6c-1.7,4.9-4.1,9.2-7.2,12.7
		c-3.1,3.6-6.9,6.3-11.2,8.2C1104,1123.4,1099.2,1124.4,1093.8,1124.4z M1119.9,1084c0-4.5-0.5-8.8-1.5-12.7
		c-1-3.9-2.5-7.4-4.6-10.3s-4.7-5.2-8-6.9c-3.3-1.7-7.3-2.5-12-2.5c-4.6,0-8.6,0.9-11.9,2.7c-3.3,1.8-6,4.2-8.1,7.3
		c-2.1,3-3.6,6.5-4.6,10.4s-1.5,7.9-1.5,12.1c0,4.7,0.6,9.1,1.7,13.1s2.8,7.4,5,10.3s4.9,5.1,8.1,6.7c3.3,1.6,7,2.4,11.2,2.4
		c4.6,0,8.6-0.9,11.9-2.7c3.3-1.8,6-4.3,8.1-7.3c2.1-3.1,3.6-6.5,4.6-10.4C1119.4,1092.1,1119.9,1088.1,1119.9,1084z"/>
	<path d="M1155,1122.3h-8.9v-76.7h8.9v14.4h0.3c2.5-6.1,5.6-10.4,9.5-12.8s9.1-3.6,15.5-3.6v9.6c-5-0.1-9.2,0.7-12.4,2.4
		c-3.3,1.7-5.8,3.9-7.8,6.8c-1.9,2.9-3.3,6.2-4,10.1s-1.1,8-1.1,12.2V1122.3L1155,1122.3z"/>
	<path d="M1194.3,1143c1.2,0.2,2.4,0.4,3.6,0.6s2.5,0.3,3.8,0.3c2.5,0,4.5-0.8,6.1-2.4s2.9-3.5,3.9-5.7s1.9-4.5,2.6-6.9
		s1.5-4.5,2.4-6.1l-29.7-77.1h9.9l24.6,65.9l24.6-65.9h9.6l-28.6,75.6c-1.8,4.8-3.5,9.2-5.1,13s-3.4,7.1-5.2,9.8
		c-1.8,2.7-3.8,4.8-6.1,6.2c-2.2,1.4-4.9,2.1-7.9,2.1c-1.6,0-3.1-0.1-4.5-0.3c-1.4-0.2-2.7-0.4-3.9-0.7L1194.3,1143L1194.3,1143z"/>
</g>
<path class="st1" d="M1216.2,792.8c-102.2-41.2-163-86.8-245.6-116.7c-76.1-27.5-163.5-37.1-230.8-58.3
	c-61.3-19.3-87.4-45.4-139.7-61.4c-25.3-7.8-54.6-12.9-84.1-17.3c-27.4-4.1-55.1-8-75.9-14.2c-40.8-12.5-40.9-31-70.3-42.8
	c-28-11.4-76.9-15.4-109.1-23.8c-29.6-7.7-35.6-18.4-54.4-26.4c-18.9-8-51-12.7-75.4-18.6c-13.9-3.4-23.2-7.2-31-11.1l-14.5,1.5
	c7.6,4.1,67.7,25.4,85.3,33.4c18.6,8.5,23.8,19.5,52.3,27.9c29.8,8.8,80.4,12.8,107.4,24c28.3,11.7,27.4,29.1,60.5,42.8
	c17.2,7.2,41,12.6,67.3,17.2c27.3,4.6,57.7,8.3,83.9,14.6c56.9,13.6,80.6,39,131.6,60.6c28.1,12,62.9,22.1,101.3,30.8
	c38,8.7,79.5,16.4,118.1,27.9c86.5,25.7,140.6,69.3,227,112.5c21.4,10.5,44.8,21,69.8,31l28.7-32.7
	C1217.8,793.4,1217,793.1,1216.2,792.8z"/>
<path class="st1" d="M1097.6,726.6c-37.8-20.2-78.4-37.6-122.7-50.5C892.5,652,800.3,644.8,739.4,618
	c-25.9-11.7-43.4-24.5-64.3-35.5c-20.2-10.6-43.9-19.5-72.4-25.9c-54.1-12.3-127-13.5-162.3-30c-16-7.6-21.1-16.5-29.2-24.4
	c-7.8-7.6-18.5-14.4-35.5-19.7c-32.4-10.1-84.2-13.1-113.2-22.3c-26.6-8.7-29.6-20.2-52-28c-21.8-7.7-58-11.9-81-18.3
	c-13-3.7-21.1-7.9-28.5-12l-15.6,1.8c6.8,4.2,65.9,25.7,87.6,32.9c22.9,7.7,25.2,19.2,48.1,28.5c12.2,4.9,29.2,9,49.9,12.4
	c19.3,3.2,41.2,5.9,58.7,10.3c40.4,10,36.3,27.5,60.2,43.1c12.3,8.2,31.9,15.1,57.7,20.3c27.1,5.5,58.5,8.6,88.5,13
	c31.4,4.5,58.7,11.3,80.4,21.5c21.5,10.3,37,22.9,58.1,35.1c23.2,13.5,54.2,26,91.9,36.3c37.8,10.1,79.6,17.4,121,26.4
	c44.8,9.7,87.5,23,125.5,42c39,19.5,71.8,42.8,112.6,67c20,11.8,41.8,22.9,64.3,34.4l29.7-33.8
	C1173.6,769.9,1135.1,746.6,1097.6,726.6z"/>
<path class="st1" d="M1103.4,717.9c-42.6-18.4-89.4-31.4-136.6-40.4c-45.1-8.6-90.7-13.9-131.4-24.3c-40.4-10.1-66.1-24.1-87-38.5
	c-19.2-13.1-35.9-25.8-61.6-35.8c-25-9.9-55.7-16.5-89.2-20.4c-31.9-3.7-65.7-5.1-95.2-9.9c-29.7-4.7-47.6-12.5-55.9-21.9
	c-7.9-9-10.5-18.1-21.3-25.9c-9.4-7-25-12.7-44.9-16.8c-20.9-4.3-45.9-6.7-68.3-10c-21.5-3.2-38.1-7.4-47.8-12.9
	c-9-5.2-13.2-10.9-20.4-15.9c-7.2-5.1-18.2-9.5-32.7-13c-27-6.5-63.2-10.2-82.4-17.3c-11.3-4.2-17.9-8.8-25-13.2L85.3,404
	c6.3,4.3,30.1,21.9,44.7,24.7c14.3,2.8,30.7,5.2,44.5,8.3c14.1,3.1,24.2,7,30.9,11.7c7.2,5.2,10.5,11.1,18.8,16.6
	c8.7,5.9,23.1,11.1,42.9,15.2c19.3,3.8,42.7,6.3,64.3,9.5c23.5,3.5,41.9,8.6,51.2,16.2c9.6,7.8,10,17,17,25.9
	c7.3,9.4,22,18.1,46.3,24.9c24.6,6.8,55.7,10.5,88.5,13.4c32.9,3.1,67.6,5.7,95.6,14.2c28.8,8.7,44.9,21.7,61.8,34.8
	c17.9,13.9,39,28.6,71.5,41.2c34.7,13.4,76.3,22.8,121.2,30.9c45.7,8.2,93.9,15.1,138.7,30.7c48,16.7,84,39.9,120.5,65.2
	c16.4,11.1,32.6,22.3,50.5,33.8l31.1-35.5C1185.6,760.8,1148.5,737,1103.4,717.9z"/>
<path class="st1" d="M1237.7,772c-42.8-25.6-87.7-46.7-142.2-62c-49.8-13.9-99.1-19.8-147.3-26.2c-46.2-6.2-90.6-14.6-122.1-30.5
	c-27.8-14.3-40-30.3-58-44.1c-17.9-13.5-41.6-25.5-73.7-33.4c-32-7.7-67.8-10.5-103.7-12.1c-34-1.5-70.1-2.6-95.6-10.1
	c-24.5-7.2-28.5-17.7-31.8-27.3c-3.1-9.3-7.3-17.9-21-25.1c-13.9-7.3-35.9-12.2-61.4-15.4c-23.5-3-49.9-4.6-70.5-8.5
	c-21.1-3.9-31.6-9.6-37.6-15.8c-5.8-5.9-9.4-11.8-18.9-16.8c-9.2-5-23.9-8.8-41.2-11.8c-16.3-2.9-34.7-5.1-50-8
	c-14.3-2.7-24.4-6-31.7-9.6c-7.3-3.7-11.6-7.7-17.3-11.4c-1.7-1.1-3.7-2.1-5.9-3.1l-21.9,2.8c7.4,4.5,10,9.3,16.5,14.7
	c5.8,4.8,11,9.2,24.5,12.2c14.5,3.2,32.4,5.6,49.4,8.5c16.2,2.7,30.6,6,39.1,10.5c9.3,4.9,11.5,10.9,16.5,16.8
	c5.4,6.2,14.3,12.3,31.2,17.1c17,4.8,40.3,7.8,64.7,10.5c25.2,2.7,51.9,5.4,67.4,12c16.1,6.9,17.6,16,19.6,25.3
	c2,10,6.8,20.3,25.3,29.2c20.3,9.6,51.3,15.8,87.1,19c34.2,3,70.9,2.5,104.9,6.6c35.4,4.2,61.2,14,78.1,27.2
	c18.5,14.5,29.4,31,53.8,47c24.3,16.1,60.2,30.2,103.6,40.1c48.3,11.2,98.7,15.6,150.5,24.5c52.6,9.2,99.5,25.4,139.5,50
	c17.4,10.6,32.7,22.2,47.8,33.9L1237.7,772L1237.7,772z"/>
<path class="st1" d="M1245.8,757.1c-55.5-23.5-109.5-37.9-168.6-45.6c-50.8-6.5-100.6-7.1-149-17.2c-49.7-10.5-74.4-28.2-89.4-46.3
	c-13.9-16.6-24.1-32-48.3-45.5c-24.2-13.4-58-22.9-96.6-26.9c-35.8-3.7-71-2.2-106.5-2.3c-36.2-0.1-74.4-3.2-90.9-14.6
	c-14.8-10.1-7.9-21.8-10.1-31.6c-1.8-9.8-11.1-18.8-30.8-25.4c-19-6.4-45.9-9.4-73.7-11.6c-26.6-2.1-54-3.7-72-9
	c-17.9-5.2-21.2-12.2-25-18.8c-3.6-6.1-8.9-11.8-20.6-16.5c-11.7-4.7-29.2-7.9-48.4-10.5c-18.8-2.6-38.5-4.7-53.2-8
	c-13.3-3-21.3-6.8-27.1-10.8c-5.7-4.1-9.6-8.2-15.8-11.8c-2.5-1.5-5.8-2.8-9.2-4.2l-24.7,3.2c2.4,1,11.9,11.6,16.9,15.8
	c5.4,4.3,9.6,9.4,22.4,12.8c13.3,3.6,31,6.3,49.8,8.8c18.5,2.5,38,5.1,50.3,9.4c13.2,4.7,16.3,10.9,19,17.4
	c3,6.6,7.2,13.4,21.2,19.1c14.7,6,37.8,9.9,64.6,12.4c25.2,2.4,54.4,3.4,76.2,8c24.5,5.1,31.1,14.1,31.1,23.8
	c-0.4,10.3-4.7,21.4,6.1,32.1c10.8,11.1,36.3,20,69.6,24.8c36.2,5.2,74.8,4.5,113.7,4.3c38.2-0.3,78,1.4,105.5,14.5
	c25.5,12.1,32.1,28.2,43,44c13.3,18.6,35.9,38.4,77.3,54.6c43.1,16.6,95.7,25.5,149.1,30.9c51.1,5.1,106.4,7.5,159.6,25.7
	c22.6,7.6,42.9,17.5,60.1,28.3l27.7-31.6C1248.4,758.5,1247.1,757.8,1245.8,757.1z"/>
<path class="st1" d="M1249.2,748.8c-63.4-16.3-114.9-21.3-170.8-22.6c-49.4-1.1-103.8-1.8-149.9-19.9c-43.3-17-46.4-39.4-54.5-57.1
	c-8.1-17.5-20.8-34.2-50.5-47.6c-28-12.7-65.3-20.1-104.5-21.6c-37.5-1.5-72,2.8-108.4,4.9c-37.2,1.9-81.8,0.1-97.9-13.1
	c-13.6-11.2-1.1-23.8,0.7-34.3c1.8-10.6-4.5-20.8-24.4-28.4c-19-7.2-47.5-10.6-77.4-12.2c-28.2-1.5-59.1-1.9-81.1-6.6
	c-21.6-4.6-25.5-11.9-27.4-19c-1.8-7.1-4.1-13.7-15.1-19.3c-10.2-5.3-27.4-8.9-47.4-11.5c-19.4-2.5-40.9-4.2-58.5-7
	c-16.9-2.8-27.5-6.6-33.9-10.9c-6-4.2-8.7-8.7-14.1-12.7c-4.9-3.6-11.9-6.9-21.1-9.7l-27.8,3.6c0.7,0.3,15.7,8.4,19.9,12.9
	c4.2,4.8,5.9,10.9,15.6,15.4c10.3,4.8,27.3,8.4,48.3,11.1c20.5,2.7,45,4.5,63.3,8.2c19.7,4.1,26.2,10.4,28,17.7
	c1.6,7.6,0.9,15.6,13.7,22.8c12.8,7.2,37.4,12,67.2,14.5c29.7,2.5,64.6,2,91.8,6.4c31,5.1,35.3,16.2,30.4,27.4
	c-5.2,12.1-14.4,24.7-1.8,37.8s45,22.9,84.9,26.3c42.4,3.6,82.6,0.1,123.4-2.9c40.6-3.1,85.3-2.8,114.2,13.6
	c26.9,15.5,24.5,34.7,32.6,53.9c9.1,21.5,32.1,44.3,80.3,62.7c49.9,19.4,111.5,27.2,169.3,29.7c29.5,1.3,58.8,1,89.5,3.3
	c14,1,29.4,2.8,43.9,5.6c6.1,1,22.7,5.2,32.6,7.8l23.7-27C1253.8,750.2,1251.5,749.5,1249.2,748.8z"/>
<path class="st1" d="M1255.3,748.5c-32.8-3.6-61.3-5.2-89.6-4c-27.2,0.9-51.6,3.6-78.4,4.8c-51.3,1.9-120.4-5-151.6-32.7
	c-25.8-22.5-12.2-44.7-16.2-63.1c-3.7-18.1-19.3-36.5-51.8-50.5c-32-13.5-75.7-20.4-117-19.9c-40.8,0.5-74.5,8.5-112.5,13.5
	c-35.7,4.7-88.3,6.2-108.9-8.2c-18-12.6,4-27,11.5-38.4c7.4-11.5,6.4-23.1-11.3-32c-17.5-8.7-46.8-13.4-79.2-14.8
	c-31.9-1.2-67.5,0.5-95.7-3.3c-28.4-3.8-34.6-11.8-34.5-19.9c0.5-8,1.7-15.5-7.6-22c-8.9-6.1-27-10.4-49.4-13.1
	c-22.1-2.7-47.8-3.8-68.1-6.7c-20.4-2.8-32.1-7.2-38-12.2c-5.3-4.8-7.1-9.7-12.7-14.1c-5.5-4.4-15-8.1-27.5-11.2
	c-0.6-0.2-1.7-0.4-2.6-0.6l-28.3,3.5c2.8,0.7,4,1.1,6.6,1.8c11.8,3.5,18.1,8.8,21.9,13.5c3.9,5.1,3.8,11.2,12.5,16.2
	c9.2,5.4,27,9.7,50.6,12.4c23.2,2.7,51.8,4,73.3,7.8c22.4,4,29,10.8,28.2,18.9c-1,8.6-5.2,17.9,7.9,26c13.9,8.4,43.3,13.4,77.9,15
	c32.9,1.5,73.8-1,103.2,4c34.8,5.8,31.8,19.4,20.9,31.3c-11.7,13.1-27.6,26.9-15.8,41.9c11.9,15.8,52.4,27.1,98.3,29.5
	c46.8,2.5,89.7-3.7,129.2-10.7c36.4-6.3,83.9-13.6,121.9,2.1c36.8,14.9,33,36.6,30,55.5c-2.8,21.1-1,45.6,36.6,70.5
	c40.5,27,108,44.8,172.9,49.6c32.9,2.5,64.1,1.6,93.2-0.3c14.6-1.1,29.2-2.2,43.7-3.3c7.5-0.3,15.3-0.8,22.8-1.1c1,0,3.1,0,5.2,0
	l31-35.4C1257,748.8,1256,748.8,1255.3,748.5z"/>
<path class="st1" d="M1102.8,778.2c-61.5,3.5-141.7-15.2-154.1-48.9c-9.5-25.9,16.3-46.2,17.7-66.7c1.5-20.1-12.7-41.1-48.4-57.4
	c-32.7-14.8-80.9-23.6-124.3-22.4c-45.4,1-77.4,11.9-112,21.3c-33.6,9.1-85.4,18.9-127.9,8.3c-43.5-11-16.8-29.3-0.2-41.5
	c17.4-12.7,31.1-25.5,22.4-37.9c-8.1-11.9-35.5-20.9-71.9-23.6c-35.3-2.5-71.1,0.9-106.8,0.9c-39.3,0-64.7-6.2-65-17.1
	c0-9.4,10.3-18.4,5-26.6c-5.1-7.7-21.8-13.5-47.1-16.7c-24.3-3.1-54.3-3.6-79.2-6.1c-25.6-2.4-40.1-7-45.4-12.9
	c-5.1-5.6-5.1-11.3-10.9-16.3c-5.9-4.9-17.1-9-31.9-12.3c-3.4-0.7-6.7-1.4-10.1-2.1l-27.4,3.5c6.6,1.3,10.2,2.8,16,4.3
	c14,3.8,19.2,9.7,21.5,15.4c2.6,6,2.8,12.5,13.9,18.1c11.6,5.7,32.9,9.6,60.2,11.8c27,2.2,61.1,2.6,82.1,7.5
	c23,5.3,19.9,14.3,14.1,23.5c-6.6,10.3-10.2,21.4,13.2,29.9c22.5,8.3,61.1,10.9,100.6,9.9c35.6-0.7,85.5-5.8,110.6,4
	c26.8,10.4,2.8,25.9-15.2,37.9c-22.3,14.4-40.3,31.3-19.5,49.1c21.1,18.3,75.3,27.2,127.4,25.6c53.3-1.6,95.1-13,132.1-24.3
	c32.7-9.9,80.2-21.2,124.7-3.5c41.3,16.6,35,39.7,23.8,58.6c-13.5,22.4-31.5,47-3.4,78.4c30.1,33.9,103.8,61.4,179.6,70.3
	c39.3,4.5,75.1,3.9,107.9,0.6c6-0.6,15-2.1,22.9-3.6l54.6-62.2C1199.3,760,1160.4,775.1,1102.8,778.2z"/>
<path class="st1" d="M1083.1,811.4c-37.8-2.9-78.2-14-103.1-31c-24.6-16.8-23.8-34-15.9-47.2c15.5-25.9,46.5-44.9,50.4-69.1
	c3.1-20.8-12.4-43.4-51.9-60.9c-36.7-16.2-90.6-26.3-138.1-23.7c-48.1,2.6-76.2,15.5-106.3,28.7c-30.5,13.4-71.8,29-127.9,27.6
	c-25.3-0.6-50.8-6.1-59.8-15.5c-8.7-9.1,2.5-18.3,15.8-25.4c27-14.9,59.8-26.7,67.8-42.5c7.2-13.9-7-28.2-42.4-35.5
	c-36-7.4-78.4-4.8-118.4-1.1c-36.8,3.3-87.9,6.8-106.3-4.2c-16.2-9.5,8.6-22.5,12.9-31.8c4.7-9.8-4.6-18.5-30.2-23.6
	c-24.9-5-59-5.1-90.8-6.4c-32.1-1.4-55.8-4.9-63.4-11.8c-6.7-6.1-3.4-12.9-8.1-18.6c-4.8-5.9-16.7-10.6-34.2-14.3
	c-7.3-1.6-15.6-2.9-23.7-4.2l-23.6,3c12.6,2.1,17.4,4.7,27.2,7.4c15.6,4.3,19.2,11.3,19.6,17.9c0.6,6.9,0.2,14.5,16.4,20.4
	c17.2,6.2,47.7,9,82.1,10.2c32.5,1.1,70.6,1.5,83.2,10c13,8.8-9.5,20.1-16.8,31c-8.3,12.1,3.6,24.4,41.7,30.1
	c40.1,6,85.8,2.5,129.9-1.5c20.1-1.9,43.8-4.2,64-1.8c20.5,2.4,30.6,8.7,31.5,15.7c1.6,15.7-40.6,28.2-67.3,42.2
	c-31,16.4-43.8,39.2-7.3,57.6c38.3,19,104.6,23.6,162.2,15.9c56-7.5,92-23.9,124.1-39.5c15.1-7.4,31.1-15.5,54.8-18.6
	c23.1-3,50-0.4,72.4,7c48.8,16.3,47,42.4,31.5,61.3c-18.7,22.7-59.4,43.5-57.5,75.9c2.4,37,58.4,78.5,146.3,101.8
	c42.1,11.2,88.3,16.3,127.3,15.6c2.3,0,5-0.3,7.3-0.3l67.7-77.2C1191.4,800.4,1150.5,816.7,1083.1,811.4z"/>
<path class="st1" d="M1056.6,841.7c-45.1-10.1-85.2-30.1-97-51.9c-20.6-38.1,41.4-62.1,67.9-82.9c27-21.1,40.9-44.8,26.1-69.4
	c-13.3-21.9-51.3-43.8-104.7-55.8c-53.1-12.1-111.3-11.1-148.4,0c-37.5,11.3-53.4,30.6-84.1,46.9c-31.5,16.6-86.4,33.7-147.8,27
	c-28.7-3.1-53.2-12-53.1-23.9c-0.3-11.2,19.1-20,38.5-26.9c39.2-14.2,79.4-25.6,96.2-42.6c15-15.2,5.6-32-31.4-41.8
	c-37.2-9.9-85.8-7.4-127.2-1.2c-37.8,5.7-89,15.5-126.8,7.3s-3.3-24,9.9-34.1c14.8-11.3,16.9-22.5-6.9-30.2
	c-22.1-7.2-60.2-7.8-97-7.9c-37.1,0-72.3-1.3-84.7-9.1c-10.8-6.8-2.3-15.1-5.3-21.9c-3.2-7.1-16.8-12.5-37.9-16.4
	c-11.7-2.2-24.6-3.9-37-5.7l-20.5,2.5c17.5,2.7,25.1,6.8,39.3,10.5c18.4,4.8,20.9,12.1,18.8,19.8c-2.1,8.3-2.4,16.8,20.5,23.1
	c23.4,6.3,62.3,7.1,101.3,7.1c19.4,0,40.1-0.1,56.1,2.3c16.7,2.5,23.5,7.6,21.7,13.3c-4.3,11.6-38.1,23-42.8,36.4
	c-4.8,15,26.6,26.9,77.7,28.5c52.4,1.8,96.5-7.2,141.8-13.8c20.7-3.1,44.4-4.9,64.1-0.5c20.6,4.4,25,13.3,20.2,20.8
	c-11.3,17.9-63.5,28.3-101.7,42.9c-42.1,16.1-66.6,41.2-32.6,64.1c36.6,24.4,112.9,31.5,179.5,23.5c62.5-7.6,105.8-26.7,135.2-46.5
	c23.9-16.4,42.1-43.7,99.6-43.3c64.1,0.4,105.4,30.2,106.4,51c1.9,26.1-36.9,45.2-71.4,66.9c-37.5,23.6-67.5,57.3-26.5,101.6
	c21.5,23,57,45.1,102.2,61.9c22.2,8.2,46.4,15,69.9,19.4c12.1,2.6,43.2,6,59.9,7.9l48.8-55.6
	C1140.1,850.5,1100.2,851.5,1056.6,841.7z"/>
<path class="st1" d="M998.4,858.4c-46.5-21.8-65-50-54.1-71.4c9.9-19,35.3-32,58.7-43.8c22.8-11.5,44.5-22.4,61.7-34.4
	c32.8-23.4,46.2-50.7,23.9-78.7c-18.8-24-66-47.8-127.1-58.7c-60.4-10.8-119.8-7.1-152.6,7.6c-34.8,15.2-44,38.7-74.2,59.4
	c-31.3,21.5-89.6,43.6-163.4,40.6c-34.9-1.3-68.8-9.5-78.1-23.7c-9.2-13.6,10.8-25.9,35.4-33.9c24.5-8,53-13.7,77.8-20.3
	c24.4-6.6,46.2-13.6,62.8-21.8c30.4-15.3,40-35.2,11-50.5c-29.2-15.3-87.7-19.5-135.5-12.4c-44.8,6.7-79.7,21.7-134.9,24.5
	c-25.4,1.2-52-0.9-61.6-8c-9.7-7,4.6-15.2,17.7-21.5c26.5-12.9,53.3-25.2,43.8-37.6c-8.6-11.4-46-16.7-88.9-16.4
	c-40.5,0.3-91.1,4.7-118.7-2.2c-25.3-6.2-10.5-17.2-9.5-25.2c1.2-8.3-9.8-15-32.9-19.5c-17.9-3.4-40.3-5.7-59.5-8.6l-13.6,1.8
	c1.4,0.2,40.3,10.2,57.2,16c18.5,6.4,8.9,15.3,5.3,24.7c-4.1,10.3,8.8,19.8,49.7,23.5c19.6,1.7,42.3,1.8,65,1.2
	c22.8-0.5,46.6-2.1,68.3-1.2c22.9,0.9,36.7,5.4,37.6,11.7c0.5,6.3-11.4,12.8-25.1,18.9c-14.3,6.5-31.5,13.2-40.7,21.1
	c-9.7,7.9-10.8,16.7,0.8,23.8c25.6,16,92.6,17.7,147.7,10.1c27.1-3.7,50.5-9.2,72.6-14.8c20.2-5.1,43-11.7,69.4-11.7
	c27,0,47.4,7.1,51.7,15.6c4.8,8.9-5.7,18-22.4,25.7c-36.7,16.7-99.1,24.2-145.8,41.2c-52.1,19.1-69.8,51.9-22.5,76.9
	c50.9,26.9,143.5,29.6,215.9,16.2c69.4-13,112.6-37.8,137.6-62.6c11.3-11.1,19.1-22.2,29-32.5c10-10.1,23.7-20,52.6-22.9
	c28.5-2.9,64.4,2.7,90.2,12.4c26.3,9.8,41.6,22.4,47.6,34.6c14.2,28.6-20.8,52-64.4,72.6c-46.4,21.8-109.7,45.6-107,90.7
	c3.6,54.7,92.2,114.6,214.1,141.9c4.4,0.8,12.3,2.1,19,3.3l46.3-52.8C1090.6,886.1,1040.5,878.5,998.4,858.4z"/>
<path class="st2" d="M1099.2,923.9c-62-9.1-124.2-29-159.3-62.1c-32.4-30.9-21.6-58.3,4.4-76.4c24.3-16.8,58.4-28.4,87.6-40.5
	c28.3-11.8,54.1-24.3,72.8-38.1c34.4-26.1,42.8-57.1,11.9-87.4c-27-26.2-87.5-51-157.6-59.8c-67.9-8.4-124.3,1.2-149.2,19.8
	c-27.6,20.5-30.7,47.9-65.7,73.1c-36,26.1-106,51.9-191.9,47.8c-40.2-2-78.8-11.9-89.5-28.4c-11-17.1,14.4-31.8,46.3-40.7
	c29.5-8.2,63-13.1,93.5-19c31.5-6.2,60.5-13,84.2-21.6c42.8-15.7,66-37.4,42.6-56.7c-21.6-17.8-82.5-28.9-137.5-22.6
	c-54.3,6.3-81.5,24.5-133.9,35.4c-26.4,5.5-59.8,9.3-88.7,6.3c-29.4-3.1-40.6-12.5-25.4-22c13.2-8.4,36.9-15,55.2-21.7
	c17.4-6.6,32.3-13.5,38.4-20.7c12.5-13.9-11.1-26.9-60.2-29c-47-2-98.4,6.9-145.1,4.7c-21.6-1-35.4-4.7-38.3-9.9
	c-2.5-5.2,4.6-11,8.2-16.2c7.5-10.1,2.3-18.5-23.3-24.1c-23.5-5.2-44-9-67.2-14.8l-26.3,4.1c6.9,1.4,68.8,14.2,79.7,22.4
	c11.6,8.7-14.1,20.1-12.2,30.9c2.5,13,45.4,19.8,102.7,17.9c25.6-0.8,50.8-3.3,75.8-4.7c25.7-1.4,52.5-0.8,62.9,5.5
	c22.3,13.4-38.4,28-71.2,40.5c-20,7.5-36.6,16.9-37.3,26.4c-0.8,10.6,15.5,19.9,44.2,25c58,10.1,131.9,0.2,181.2-14
	c24.6-7.1,43.5-15.3,65.2-22.1c19.7-6.2,47.9-11.3,76.5-6.2c26.8,4.8,36.9,15.3,33.7,24.7c-3.8,10.6-22.3,20.2-46.7,27.8
	c-50.4,15.8-122.6,21.1-179,38.8c-66.8,20.9-90.5,59.4-36.1,89.7c57.6,31.7,166.2,34,247.5,17.5c81.5-16.7,129.1-47.4,153.6-77.8
	c10.6-13.6,16.4-27,23.6-39.4c6.7-11.4,15.3-22.6,39.1-28.5c25.1-6.4,64.4-4,97.1,4.4c33.1,8.5,56.5,21.9,69,35.2
	c27.6,30.1,1.3,58.5-45,80.2c-50.9,24.1-134.8,41.4-166,83C805,831,861.2,908.2,991.9,957.1c16.6,6.2,33.3,11.1,50.3,16.1
	c3.2,0.9,9.7,2.7,15.2,4.1l46.8-53.3C1102.7,924.3,1100.5,923.9,1099.2,923.9z"/>
<path class="st3" d="M80.3,341.1c0,0,62.8-33,73.6-39.2c22-12.4,41.9-26.9,59.9-44.9c21.7-21.7,49.3-53.3,69.4-80.2
	c20.2,27.6,80.9,94.2,80.9,94.2"/>
<path class="st4" d="M314.9,350.5l-3.5-15.7c5.5-7.8,128.1-180.2,144.7-201.7l5.3-6.8l4.6,7.3c17.7,28.2,106.2,157,107.1,158.3
	l-9.9,6.8c-3.4-4.9-77.9-113.4-102.7-151.4C430.9,187.4,316.2,348.7,314.9,350.5z"/>
<path class="st4" d="M512.6,401.2l-3.8-16.2c1.8-2.8,175.8-270.8,187.3-289.5l4.8-7.8l5.2,7.5c13.4,19.4,122.5,191.2,127.2,198.5
	l-10.1,6.4c-1-1.6-96.1-151.4-121.8-190.5C670.1,158.4,519.5,390.5,512.6,401.2z"/>
<path class="st4" d="M766,467.8l-3-19c9-15.6,212.3-370,231.5-399.2l5.1-7.7l5,7.8c16.5,25.7,247.3,383.1,249.7,386.7l-10.1,6.5
	c-2.2-3.4-206.5-319.7-244.5-378.8C962.1,126.1,768.1,464.2,766,467.8z"/>
<polygon class="st5" points="766.8,466.5 701.4,110.2 701.4,98.6 851.3,307.4 "/>
<polygon class="st5" points="1149.3,569.8 999.1,61.7 1001,56.4 1256.5,439.3 "/>
<polygon class="st5" points="314.7,349.8 282.8,187.6 284.1,178.2 364.1,271.1 "/>
<polygon class="st5" points="460.8,136.7 569.6,295.9 512.6,401.2 460.8,146.9 "/>
<path class="st4" d="M85,403.4c-4.7-0.6-15.4-5.4-20.4-8.4c-6.3-3.7-11.8-5.5-14.6-18.4c-5.1-23.7,14.4-34,27.4-40.8l5.6,10.6
	c-16.9,8.9-24,15-21.3,27.7c1.4,6.6,7,10.3,16.6,14.2c6.7,2.7,26.7,8.4,33.9,10.8L85,403.4z"/>
</svg>
